<svg xmlns="http://www.w3.org/2000/svg" viewBox="0 0 128 128">
  <defs>
    <linearGradient id="shield" x1="28" y1="18" x2="101" y2="112" gradientUnits="userSpaceOnUse">
      <stop stop-color="#B7D0D7"/>
      <stop offset="1" stop-color="#6F929D"/>
    </linearGradient>
    <filter id="shadow" x="8" y="8" width="112" height="112" filterUnits="userSpaceOnUse">
      <feDropShadow dx="0" dy="5" stdDeviation="5" flood-color="#071014" flood-opacity=".28"/>
    </filter>
  </defs>
  <path d="M64 10 105 25v32c0 28-17.4 49.8-41 60C40.4 106.8 23 85 23 57V25L64 10Z"
        fill="#202A2E" stroke="url(#shield)" stroke-width="4" stroke-linejoin="round" filter="url(#shadow)"/>
  <rect x="28" y="46" width="72" height="36" rx="18" fill="#0B0F11" stroke="#DCE7EA" stroke-width="3"/>
  <path d="M39 64a9 9 0 0 1 15-6" fill="none" stroke="#FFD84A" stroke-width="3.5" stroke-linecap="round"/>
  <path d="m57 65 5-1 3-10 6 21 4-14 5 3" fill="none" stroke="#48F18A" stroke-width="3.5" stroke-linecap="round" stroke-linejoin="round"/>
  <path d="M89 55v18M82 64h14M84.5 59.5l9 9M93.5 59.5l-9 9" fill="none" stroke="#45BFFF" stroke-width="3" stroke-linecap="round"/>
</svg>
