<svg xmlns="http://www.w3.org/2000/svg" viewBox="0 0 76 36">
  <defs>
    <linearGradient id="shield" x1="0" y1="0" x2="0" y2="1">
      <stop offset="0" stop-color="#A9C3CF"/>
      <stop offset="1" stop-color="#7897A7"/>
    </linearGradient>
  </defs>
  <rect x="21" y="1" width="34" height="34" rx="9" fill="#F8F9FA"/>
  <path d="M25 12h26v16a3 3 0 0 1-3 3H28a3 3 0 0 1-3-3z" fill="none" stroke="#D8DEE3" stroke-width="1.4"/>
  <path d="M25 12h26v4H25z" fill="#D0D6DC"/>
  <circle cx="28" cy="14" r=".8" fill="#F8F9FA"/>
  <circle cx="31" cy="14" r=".8" fill="#F8F9FA"/>
  <circle cx="34" cy="14" r=".8" fill="#F8F9FA"/>
  <path d="M38 13.5 46 17v5.5c0 5.1-3.4 8.4-8 10-4.6-1.6-8-4.9-8-10V17z" fill="url(#shield)"/>
  <circle cx="38" cy="22.5" r="3.3" fill="none" stroke="#FFF" stroke-width="1.8"/>
</svg>
